<mxfile host="drawio-plugin" modified="2024-02-17T11:59:17.541Z" agent="5.0 (Windows NT 10.0; Win64; x64) AppleWebKit/537.36 (KHTML, like Gecko) Chrome/111.0.0.0 Safari/537.36" etag="4C-moKhY0-D1VTN9r5l4" version="20.5.3" type="embed"><diagram id="phTt7cUZ88e7XOddQa1o" name="Page-1"><mxGraphModel dx="2625" dy="935" grid="1" gridSize="10" guides="1" tooltips="1" connect="1" arrows="1" fold="1" page="1" pageScale="1" pageWidth="850" pageHeight="1100" math="0" shadow="0"><root><mxCell id="0"/><mxCell id="1" parent="0"/><mxCell id="14" style="edgeStyle=orthogonalEdgeStyle;rounded=0;orthogonalLoop=1;jettySize=auto;html=1;entryX=0.5;entryY=0;entryDx=0;entryDy=0;" edge="1" parent="1" source="12" target="13"><mxGeometry relative="1" as="geometry"/></mxCell><mxCell id="12" value="&lt;p style=&quot;margin:0px;margin-top:4px;text-align:center;&quot;&gt;&lt;i&gt;&amp;lt;&amp;lt;GridCreator&amp;gt;&amp;gt;&lt;/i&gt;&lt;br&gt;&lt;b&gt;Interface&lt;/b&gt;&lt;/p&gt;&lt;hr size=&quot;1&quot;&gt;&lt;p style=&quot;margin:0px;margin-left:4px;&quot;&gt;&lt;br&gt;&lt;/p&gt;&lt;hr size=&quot;1&quot;&gt;&lt;p style=&quot;margin:0px;margin-left:4px;&quot;&gt;+ createGrid(root: HTMLElement, gridOptions: GridOptins): GridApi&lt;br&gt;&lt;br&gt;&lt;/p&gt;" style="verticalAlign=top;align=left;overflow=fill;fontSize=12;fontFamily=Helvetica;html=1;" parent="1" vertex="1"><mxGeometry x="80" y="90" width="400" height="160" as="geometry"/></mxCell><mxCell id="19" style="edgeStyle=orthogonalEdgeStyle;rounded=0;orthogonalLoop=1;jettySize=auto;html=1;" edge="1" parent="1" source="13" target="15"><mxGeometry relative="1" as="geometry"/></mxCell><mxCell id="20" style="edgeStyle=orthogonalEdgeStyle;rounded=0;orthogonalLoop=1;jettySize=auto;html=1;entryX=0.5;entryY=0;entryDx=0;entryDy=0;" edge="1" parent="1" source="13" target="16"><mxGeometry relative="1" as="geometry"><Array as="points"><mxPoint x="280" y="520"/><mxPoint x="765" y="520"/></Array></mxGeometry></mxCell><mxCell id="31" style="edgeStyle=orthogonalEdgeStyle;rounded=0;orthogonalLoop=1;jettySize=auto;html=1;entryX=0.5;entryY=1;entryDx=0;entryDy=0;" edge="1" parent="1" source="13" target="21"><mxGeometry relative="1" as="geometry"><Array as="points"><mxPoint x="280" y="520"/><mxPoint x="-490" y="520"/><mxPoint x="-490" y="1050"/><mxPoint x="280" y="1050"/></Array></mxGeometry></mxCell><mxCell id="36" style="edgeStyle=orthogonalEdgeStyle;rounded=0;orthogonalLoop=1;jettySize=auto;html=1;entryX=0.5;entryY=0;entryDx=0;entryDy=0;strokeColor=default;" edge="1" parent="1" source="13" target="17"><mxGeometry relative="1" as="geometry"><Array as="points"><mxPoint x="280" y="520"/><mxPoint x="-205" y="520"/></Array></mxGeometry></mxCell><mxCell id="13" value="&lt;p style=&quot;margin:0px;margin-top:4px;text-align:center;&quot;&gt;&lt;i&gt;&amp;lt;&amp;lt;GridCreator&amp;gt;&amp;gt;&lt;/i&gt;&lt;br&gt;&lt;b&gt;Interface&lt;/b&gt;&lt;/p&gt;&lt;hr size=&quot;1&quot;&gt;&lt;p style=&quot;margin:0px;margin-left:4px;&quot;&gt;+&amp;nbsp;&amp;nbsp;&lt;span style=&quot;font-family: Consolas, monospace; background-color: rgb(30, 31, 34); color: rgb(199, 125, 187);&quot;&gt;rowModel&lt;/span&gt;&lt;span style=&quot;font-family: Consolas, monospace; background-color: rgb(30, 31, 34); color: rgb(188, 190, 196);&quot;&gt;: IRowModel&lt;/span&gt;&lt;/p&gt;&lt;p style=&quot;margin:0px;margin-left:4px;&quot;&gt;&lt;span style=&quot;font-family: Consolas, monospace; background-color: rgb(30, 31, 34); color: rgb(188, 190, 196);&quot;&gt;+&amp;nbsp;&lt;/span&gt;&lt;span style=&quot;font-family: Consolas, monospace; background-color: rgb(30, 31, 34); color: rgb(199, 125, 187);&quot;&gt;columnModel&lt;/span&gt;&lt;span style=&quot;font-family: Consolas, monospace; background-color: rgb(30, 31, 34); color: rgb(188, 190, 196);&quot;&gt;: IColumnModel&lt;/span&gt;&lt;/p&gt;&lt;p style=&quot;margin:0px;margin-left:4px;&quot;&gt;&lt;span style=&quot;font-family: Consolas, monospace; background-color: rgb(30, 31, 34); color: rgb(188, 190, 196);&quot;&gt;+&amp;nbsp;&lt;/span&gt;&lt;span style=&quot;font-family: Consolas, monospace; background-color: rgb(30, 31, 34); color: rgb(199, 125, 187);&quot;&gt;presenter&lt;/span&gt;&lt;span style=&quot;font-family: Consolas, monospace; background-color: rgb(30, 31, 34); color: rgb(188, 190, 196);&quot;&gt;: IPresenter&lt;/span&gt;&lt;/p&gt;&lt;p style=&quot;margin:0px;margin-left:4px;&quot;&gt;&lt;br&gt;&lt;/p&gt;&lt;hr size=&quot;1&quot;&gt;&lt;p style=&quot;margin:0px;margin-left:4px;&quot;&gt;+ render()&lt;br&gt;&lt;br&gt;&lt;/p&gt;" style="verticalAlign=top;align=left;overflow=fill;fontSize=12;fontFamily=Helvetica;html=1;" parent="1" vertex="1"><mxGeometry x="80" y="320" width="400" height="160" as="geometry"/></mxCell><mxCell id="34" style="edgeStyle=orthogonalEdgeStyle;rounded=0;orthogonalLoop=1;jettySize=auto;html=1;" edge="1" parent="1" source="15" target="16"><mxGeometry relative="1" as="geometry"/></mxCell><mxCell id="35" style="edgeStyle=orthogonalEdgeStyle;rounded=0;orthogonalLoop=1;jettySize=auto;html=1;" edge="1" parent="1" source="15" target="17"><mxGeometry relative="1" as="geometry"/></mxCell><mxCell id="37" style="edgeStyle=orthogonalEdgeStyle;rounded=0;orthogonalLoop=1;jettySize=auto;html=1;entryX=0.5;entryY=0;entryDx=0;entryDy=0;strokeColor=default;" edge="1" parent="1" source="15" target="21"><mxGeometry relative="1" as="geometry"/></mxCell><mxCell id="15" value="&lt;p style=&quot;margin:0px;margin-top:4px;text-align:center;&quot;&gt;&lt;i&gt;&amp;lt;&amp;lt;&lt;/i&gt;&lt;span style=&quot;font-family: Consolas, monospace; background-color: rgb(30, 31, 34); color: rgb(188, 190, 196); text-align: left;&quot;&gt;IPresenter&lt;/span&gt;&lt;i style=&quot;background-color: initial;&quot;&gt;&amp;gt;&amp;gt;&lt;/i&gt;&lt;/p&gt;&lt;p style=&quot;margin:0px;margin-top:4px;text-align:center;&quot;&gt;&lt;b&gt;Interface&lt;/b&gt;&lt;/p&gt;&lt;hr size=&quot;1&quot;&gt;&lt;p style=&quot;margin:0px;margin-left:4px;&quot;&gt;+&amp;nbsp;&amp;nbsp;&lt;span style=&quot;font-family: Consolas, monospace; background-color: rgb(30, 31, 34); color: rgb(199, 125, 187);&quot;&gt;root&lt;/span&gt;&lt;span style=&quot;font-family: Consolas, monospace; background-color: rgb(30, 31, 34); color: rgb(188, 190, 196);&quot;&gt;: HTMLElement&lt;/span&gt;&lt;/p&gt;&lt;hr size=&quot;1&quot;&gt;&lt;p style=&quot;margin:0px;margin-left:4px;&quot;&gt;+ render()&lt;br&gt;&lt;br&gt;&lt;/p&gt;" style="verticalAlign=top;align=left;overflow=fill;fontSize=12;fontFamily=Helvetica;html=1;" vertex="1" parent="1"><mxGeometry x="85" y="630" width="390" height="120" as="geometry"/></mxCell><mxCell id="30" style="edgeStyle=orthogonalEdgeStyle;rounded=0;orthogonalLoop=1;jettySize=auto;html=1;exitX=0.5;exitY=1;exitDx=0;exitDy=0;" edge="1" parent="1" source="16" target="21"><mxGeometry relative="1" as="geometry"><Array as="points"><mxPoint x="765" y="905"/></Array></mxGeometry></mxCell><mxCell id="16" value="&lt;p style=&quot;margin:0px;margin-top:4px;text-align:center;&quot;&gt;&lt;i&gt;&amp;lt;&amp;lt;&lt;/i&gt;&lt;span style=&quot;font-family: Consolas, monospace; background-color: rgb(30, 31, 34); color: rgb(188, 190, 196); text-align: left;&quot;&gt;IRowModel&lt;/span&gt;&lt;i style=&quot;background-color: initial;&quot;&gt;&amp;gt;&amp;gt;&lt;/i&gt;&lt;/p&gt;&lt;p style=&quot;margin:0px;margin-top:4px;text-align:center;&quot;&gt;&lt;b&gt;Interface&lt;/b&gt;&lt;/p&gt;&lt;hr size=&quot;1&quot;&gt;&lt;p style=&quot;margin:0px;margin-left:4px;&quot;&gt;&lt;br&gt;&lt;/p&gt;&lt;hr size=&quot;1&quot;&gt;&lt;p style=&quot;margin:0px;margin-left:4px;&quot;&gt;+ select&lt;br&gt;+ pin&lt;br&gt;&lt;br&gt;&lt;/p&gt;" style="verticalAlign=top;align=left;overflow=fill;fontSize=12;fontFamily=Helvetica;html=1;" vertex="1" parent="1"><mxGeometry x="570" y="630" width="390" height="120" as="geometry"/></mxCell><mxCell id="27" style="edgeStyle=orthogonalEdgeStyle;rounded=0;orthogonalLoop=1;jettySize=auto;html=1;entryX=0.001;entryY=0.557;entryDx=0;entryDy=0;entryPerimeter=0;exitX=0.5;exitY=1;exitDx=0;exitDy=0;" edge="1" parent="1" source="17" target="21"><mxGeometry relative="1" as="geometry"><Array as="points"><mxPoint x="-205" y="915"/></Array></mxGeometry></mxCell><mxCell id="17" value="&lt;p style=&quot;margin:0px;margin-top:4px;text-align:center;&quot;&gt;&lt;i&gt;&amp;lt;&amp;lt;&lt;/i&gt;&lt;span style=&quot;font-family: Consolas, monospace; background-color: rgb(30, 31, 34); color: rgb(188, 190, 196); text-align: left;&quot;&gt;IColumnModel&lt;/span&gt;&lt;i style=&quot;background-color: initial;&quot;&gt;&amp;gt;&amp;gt;&lt;/i&gt;&lt;/p&gt;&lt;p style=&quot;margin:0px;margin-top:4px;text-align:center;&quot;&gt;&lt;b&gt;Interface&lt;/b&gt;&lt;/p&gt;&lt;hr size=&quot;1&quot;&gt;&lt;p style=&quot;margin:0px;margin-left:4px;&quot;&gt;&lt;br&gt;&lt;/p&gt;&lt;hr size=&quot;1&quot;&gt;&lt;p style=&quot;margin:0px;margin-left:4px;&quot;&gt;+ sort&lt;br&gt;+ filter&lt;br&gt;&lt;br&gt;&lt;/p&gt;" style="verticalAlign=top;align=left;overflow=fill;fontSize=12;fontFamily=Helvetica;html=1;" vertex="1" parent="1"><mxGeometry x="-400" y="630" width="390" height="120" as="geometry"/></mxCell><mxCell id="21" value="&lt;p style=&quot;margin: 4px 0px 0px; text-align: center;&quot;&gt;&lt;i&gt;&amp;lt;&amp;lt;&lt;/i&gt;&lt;span style=&quot;font-family: Consolas, monospace; background-color: rgb(30, 31, 34); color: rgb(188, 190, 196); text-align: left;&quot;&gt;IDataStore&lt;/span&gt;&lt;i style=&quot;background-color: initial;&quot;&gt;&amp;gt;&amp;gt;&lt;/i&gt;&lt;/p&gt;&lt;p style=&quot;margin:0px;margin-top:4px;text-align:center;&quot;&gt;&lt;b&gt;Interface&lt;/b&gt;&lt;/p&gt;&lt;hr size=&quot;1&quot;&gt;&lt;p style=&quot;margin:0px;margin-left:4px;&quot;&gt;+&amp;nbsp;&amp;nbsp;&lt;span style=&quot;color: rgb(199, 125, 187); font-family: Consolas, monospace; background-color: rgb(30, 31, 34);&quot;&gt;rows&lt;/span&gt;&lt;span style=&quot;background-color: rgb(30, 31, 34); color: rgb(188, 190, 196); font-family: Consolas, monospace;&quot;&gt;: any[]&lt;/span&gt;&lt;/p&gt;&lt;p style=&quot;margin:0px;margin-left:4px;&quot;&gt;+&amp;nbsp;&amp;nbsp;&lt;span style=&quot;font-family: Consolas, monospace; background-color: rgb(30, 31, 34); color: rgb(199, 125, 187);&quot;&gt;cols&lt;/span&gt;&lt;span style=&quot;font-family: Consolas, monospace; background-color: rgb(30, 31, 34); color: rgb(188, 190, 196);&quot;&gt;: ColDef[]&lt;/span&gt;&lt;span style=&quot;background-color: rgb(30, 31, 34); color: rgb(188, 190, 196); font-family: Consolas, monospace;&quot;&gt;&lt;br&gt;&lt;/span&gt;&lt;/p&gt;&lt;hr size=&quot;1&quot;&gt;&lt;p style=&quot;margin:0px;margin-left:4px;&quot;&gt;+ getRows: () =&amp;gt; any[]&lt;br&gt;+ getCols: () =&amp;gt; ColDef[]&lt;/p&gt;&lt;p style=&quot;margin:0px;margin-left:4px;&quot;&gt;+ setRows: (rows: any[]) =&amp;gt; void&lt;br&gt;+ setCols: (cols: ColDef) =&amp;gt; void&lt;/p&gt;&lt;p style=&quot;margin:0px;margin-left:4px;&quot;&gt;&lt;br&gt;&lt;br&gt;&lt;/p&gt;" style="verticalAlign=top;align=left;overflow=fill;fontSize=12;fontFamily=Helvetica;html=1;" vertex="1" parent="1"><mxGeometry x="96.25" y="820" width="367.5" height="170" as="geometry"/></mxCell></root></mxGraphModel></diagram></mxfile>